<?xml version="1.0" standalone="no"?>
<!DOCTYPE svg PUBLIC "-//W3C//DTD SVG 20010904//EN"
 "http://www.w3.org/TR/2001/REC-SVG-20010904/DTD/svg10.dtd">
<svg version="1.0" xmlns="http://www.w3.org/2000/svg"
 width="5809.000000pt" height="836.000000pt" viewBox="0 0 5809.000000 836.000000"
 preserveAspectRatio="xMidYMid meet">

<g transform="translate(0.000000,836.000000) scale(0.100000,-0.100000)"
fill="#fff" stroke="none">
<path d="M3098 8310 c-651 -36 -1228 -220 -1673 -534 -112 -79 -213 -167 -320
-278 -293 -304 -460 -640 -532 -1067 -25 -147 -25 -509 0 -671 35 -228 88
-402 177 -585 283 -583 835 -959 1861 -1269 118 -35 397 -114 622 -175 695
-190 939 -272 1207 -406 310 -155 520 -364 606 -600 43 -118 57 -225 51 -390
-11 -305 -105 -533 -302 -731 -98 -99 -183 -160 -321 -230 -184 -93 -436 -163
-709 -196 -165 -19 -581 -17 -725 5 -153 23 -298 59 -418 103 -624 232 -1006
744 -1095 1469 l-12 100 -608 3 -607 2 0 -57 c0 -79 25 -294 50 -428 115 -613
359 -1096 754 -1490 362 -362 802 -602 1350 -736 701 -171 1588 -135 2271 93
971 324 1553 1008 1646 1933 15 150 7 459 -16 610 -120 790 -571 1304 -1454
1657 -270 108 -615 211 -1141 343 -846 212 -1170 320 -1435 480 -272 164 -421
347 -492 606 -26 93 -26 395 1 494 21 81 90 233 135 299 158 229 457 404 818
480 370 77 773 70 1117 -19 168 -44 343 -122 496 -223 105 -69 289 -250 357
-352 126 -188 204 -398 234 -625 l12 -95 610 0 610 0 -7 93 c-17 216 -83 512
-162 723 -348 935 -1199 1536 -2332 1648 -195 20 -443 26 -624 16z"/>
<path d="M33495 8310 c-1023 -54 -1939 -443 -2600 -1105 -479 -479 -806 -1072
-980 -1779 -222 -902 -188 -1967 90 -2811 480 -1455 1656 -2375 3260 -2551
220 -24 698 -25 915 -1 905 100 1666 437 2212 980 447 444 723 987 812 1598 9
59 16 114 16 123 0 15 -54 16 -632 14 l-632 -3 -17 -100 c-120 -676 -725
-1239 -1544 -1435 -239 -58 -383 -73 -675 -74 -162 -1 -306 4 -370 12 -716 89
-1286 403 -1686 928 -414 544 -624 1308 -601 2189 10 364 44 623 122 930 58
227 119 395 220 600 246 501 594 860 1061 1096 575 290 1338 357 1994 175 653
-180 1169 -609 1375 -1141 37 -96 80 -250 91 -327 l6 -48 658 0 657 0 -13 86
c-99 617 -382 1171 -824 1615 -527 529 -1236 870 -2055 989 -261 38 -601 54
-860 40z"/>
<path d="M48035 8310 c-1216 -66 -2138 -644 -2444 -1533 -154 -448 -145 -1001
24 -1452 166 -444 501 -796 1006 -1059 350 -183 697 -304 1459 -512 212 -58
446 -123 520 -144 576 -167 925 -331 1141 -537 99 -94 157 -174 208 -285 67
-143 76 -196 75 -418 -1 -177 -3 -204 -27 -292 -116 -436 -465 -728 -1017
-852 -212 -47 -343 -60 -630 -60 -211 -1 -290 3 -385 18 -661 102 -1120 440
-1361 1005 -71 165 -114 331 -143 546 l-16 120 -608 3 -607 2 0 -44 c0 -137
47 -450 97 -650 130 -518 359 -933 708 -1281 463 -464 1060 -730 1840 -821
113 -14 227 -18 460 -18 333 0 503 14 770 59 1284 221 2087 974 2196 2059 15
152 7 484 -16 631 -49 317 -160 605 -323 835 -81 114 -255 297 -372 390 -257
205 -607 381 -1045 525 -236 78 -397 123 -898 251 -503 128 -773 204 -952 269
-584 212 -867 471 -940 860 -26 134 -16 348 20 470 95 322 340 556 723 689
216 75 446 109 742 110 284 0 483 -28 697 -100 559 -187 904 -596 986 -1170
l12 -89 608 -3 607 -2 0 44 c0 151 -61 459 -136 686 -324 982 -1191 1619
-2362 1734 -196 20 -434 26 -617 16z"/>
<path d="M6620 7665 l0 -555 1255 0 1255 0 0 -3490 0 -3490 625 0 625 0 0
3490 0 3490 1260 0 1260 0 0 555 0 555 -1260 0 -1260 0 0 -555 0 -555 -625 0
-625 0 0 555 0 555 -1255 0 -1255 0 0 -555z"/>
<path d="M15091 8198 c-5 -13 -718 -1828 -1585 -4035 -867 -2207 -1576 -4017
-1576 -4023 0 -16 1275 -14 1287 3 5 6 180 465 388 1020 l379 1007 1684 -2
1684 -3 382 -1015 382 -1015 653 -3 c619 -2 653 -1 647 15 -4 10 -718 1830
-1588 4046 l-1582 4027 -573 0 -573 0 -9 -22z m1221 -3271 c341 -901 618
-1640 616 -1643 -3 -2 -570 -3 -1260 -2 l-1256 3 614 1620 c337 891 621 1640
630 1664 16 43 18 44 26 20 5 -13 288 -761 630 -1662z"/>
<path d="M20192 4178 l3 -4043 628 -3 627 -2 0 4045 0 4045 -630 0 -630 0 2
-4042z"/>
<path d="M23020 6315 l0 -1905 625 0 625 0 0 -555 0 -555 -625 0 -625 0 0
-1585 0 -1585 625 0 625 0 0 1585 0 1586 1073 -4 c1046 -3 1074 -3 1162 -24
485 -113 820 -490 906 -1018 10 -66 55 -565 99 -1110 45 -545 83 -996 85
-1002 3 -10 134 -13 610 -13 l605 0 0 34 c0 83 -172 2221 -186 2306 -98 613
-408 1128 -873 1448 -71 50 -72 51 -49 64 13 8 64 38 113 68 151 89 294 199
424 325 299 290 474 617 552 1028 30 158 38 507 15 701 -53 455 -202 849 -445
1173 -83 110 -251 286 -356 370 -308 249 -708 429 -1135 513 -293 57 -175 54
-2087 57 l-1763 4 0 -1906z m3490 786 c505 -92 830 -357 975 -794 86 -260 104
-532 55 -822 -89 -519 -414 -885 -897 -1010 -205 -54 -240 -55 -1349 -55
l-1024 0 0 1356 0 1355 1058 -3 c1050 -4 1058 -4 1182 -27z"/>
<path d="M40631 8198 c-5 -13 -717 -1823 -1581 -4023 -865 -2200 -1575 -4010
-1578 -4023 l-4 -22 641 0 642 0 18 42 c11 24 184 483 386 1021 l368 977 1684
-2 1684 -3 382 -1015 382 -1015 654 -3 c620 -2 653 -1 647 15 -4 10 -719 1830
-1589 4045 l-1582 4028 -573 0 -572 0 -9 -22z m1836 -4914 c-2 -2 -569 -3
-1260 -2 l-1256 3 625 1650 c343 908 627 1657 630 1665 3 8 289 -734 635
-1649 347 -914 628 -1665 626 -1667z"/>
<path d="M52450 6540 l0 -1680 625 0 625 0 0 -555 0 -555 -625 0 -625 0 2
-1807 3 -1808 2668 -3 2667 -2 0 560 0 560 -2040 0 -2040 0 0 1250 0 1250
1600 0 1600 0 0 555 0 555 -1600 0 -1600 0 0 1125 0 1125 1980 0 1980 0 0 555
0 555 -2610 0 -2610 0 0 -1680z"/>
</g>
</svg>
